<?xml version="1.0" encoding="utf-8"?>
<!-- Generator: Adobe Illustrator 22.0.1, SVG Export Plug-In . SVG Version: 6.00 Build 0)  -->
<svg version="1.1" xmlns="http://www.w3.org/2000/svg" xmlns:xlink="http://www.w3.org/1999/xlink" x="0px" y="0px"
	 viewBox="0 0 618 424" style="enable-background:new 0 0 618 424;" xml:space="preserve">
<style type="text/css">
	.st0{display:none;}
	.st1{display:inline;fill:#707070;}
	.st2{display:inline;fill:#353535;}
	.st3{display:inline;fill:#AA00FF;}
	.st4{display:inline;}
	.st5{fill:#353535;}
	.st6{fill:#FFFFFF;}
	.st7{fill:#AA00FF;}
</style>
<g id="Layer_1" class="st0">
	<rect x="-0.4" y="-0.4" class="st1" width="618" height="423"/>
</g>
<g id="sm_logo_inverted" class="st0">
	<polygon class="st2" points="311.7,26.3 370,26.3 416.3,108.3 469.3,26.3 519.3,26.3 519.3,333 463.7,333 463.7,126.3 416,203.3 	
		"/>
	<rect x="463.3" y="403" class="st3" width="133.8" height="7.8"/>
	<g class="st4">
		<path class="st5" d="M503.4,375.3h0.2l5.7-30.4h11l-10.8,46.9h-10.3l-7.9-29h-0.2l-7.8,29h-10.3l-10.8-46.9h11.1l5.7,30.5l0.2,0
			l8-30.5h8.2L503.4,375.3z"/>
		<path class="st5" d="M552,371.7h-16.5v11.7h19.8v8.4h-30.7v-46.9h30.8v8.4h-19.9v10.1H552V371.7z"/>
		<path class="st5" d="M561.4,391.8v-46.9h15.4c5.8,0,10.4,1.1,13.6,3.2c3.3,2.2,4.9,5.4,4.9,9.7c0,2.2-0.5,4.2-1.5,5.9
			c-1,1.7-2.6,3-4.8,3.9c2.8,0.6,4.9,1.8,6.2,3.7c1.3,1.9,2,4.1,2,6.5c0,4.6-1.5,8-4.6,10.4c-3.1,2.3-7.5,3.5-13.2,3.5H561.4z
			 M572.3,364.5h4.3c2.6,0,4.6-0.5,5.9-1.4c1.3-0.9,1.9-2.3,1.9-4.1c0-2-0.6-3.5-1.9-4.4c-1.2-0.9-3.2-1.4-5.7-1.4h-4.5V364.5z
			 M572.3,371.7v11.8h7c2.3,0,4.1-0.5,5.2-1.4c1.2-0.9,1.7-2.3,1.7-4.2c0-2-0.5-3.5-1.5-4.5c-1-1-2.7-1.6-5-1.6h-0.4H572.3z"/>
	</g>
	<path class="st3" d="M252.2,205c0,0-10.2-36-34.2-53.2c-24-17.2-42.3-23.8-67-23.3v50.2c1.1-0.1,2.3-0.1,3.5-0.1
		c29.4,0,53.2,23.8,53.2,53.2c0,29.4-23.8,53.2-53.2,53.2c-0.1,0-0.3,0-0.4,0c-2.6,0.1-5.7,0.2-9.4,0.3c-17.3,0.1-121,0.5-121,0.5
		v47.5h141.5c0,0,35.2-1.3,67-38.4C264,257.7,252.2,205,252.2,205z"/>
	<path class="st2" d="M261.9,26.1l-138.7,0.3c0,0-0.3,0-0.9,0.1l0,0c-9.9,0.7-19.5,2.8-28.6,6.1c-5.8,2-11.9,4.7-17.5,8.2
		C45.8,58.7,25,91.3,25,128.6c0,54.1,42.3,98.5,96,102.4l0,0c3.8,0.4,7.8,0.7,11.9,0.8l0.3-50.5c0,0-5.2-0.1-11.8-1.1
		c-6.3-1-13.9-2.8-19.4-6.4c-16.9-8-28.6-25.1-28.6-45c0-18.9,10.6-35.4,26.3-43.8c0.1-0.1,0.3-0.2,0.4-0.4
		c3.5-1.3,12.8-4.4,21.7-5.8c0.1,0,0.2,0,0.2,0c0.6,0,0.9-0.1,0.9-0.1l113-1l124,219.3l32.7-49.5L261.9,26.1z"/>
</g>
<g id="sm_logo">
	<polygon class="st6" points="311.7,26.3 370,26.3 416.3,108.3 469.3,26.3 519.3,26.3 519.3,333 463.7,333 463.7,126.3 416,203.3 	
		"/>
	<rect x="463.3" y="403" class="st7" width="133.8" height="7.8"/>
	<g>
		<path class="st6" d="M503.4,375.3h0.2l5.7-30.4h11l-10.8,46.9h-10.3l-7.9-29h-0.2l-7.8,29h-10.3l-10.8-46.9h11.1l5.7,30.5l0.2,0
			l8-30.5h8.2L503.4,375.3z"/>
		<path class="st6" d="M552,371.7h-16.5v11.7h19.8v8.4h-30.7v-46.9h30.8v8.4h-19.9v10.1H552V371.7z"/>
		<path class="st6" d="M561.4,391.8v-46.9h15.4c5.8,0,10.4,1.1,13.6,3.2c3.3,2.2,4.9,5.4,4.9,9.7c0,2.2-0.5,4.2-1.5,5.9
			c-1,1.7-2.6,3-4.8,3.9c2.8,0.6,4.9,1.8,6.2,3.7c1.3,1.9,2,4.1,2,6.5c0,4.6-1.5,8-4.6,10.4c-3.1,2.3-7.5,3.5-13.2,3.5H561.4z
			 M572.3,364.5h4.3c2.6,0,4.6-0.5,5.9-1.4c1.3-0.9,1.9-2.3,1.9-4.1c0-2-0.6-3.5-1.9-4.4c-1.2-0.9-3.2-1.4-5.7-1.4h-4.5V364.5z
			 M572.3,371.7v11.8h7c2.3,0,4.1-0.5,5.2-1.4c1.2-0.9,1.7-2.3,1.7-4.2c0-2-0.5-3.5-1.5-4.5c-1-1-2.7-1.6-5-1.6h-0.4H572.3z"/>
	</g>
	<path class="st7" d="M252.2,205c0,0-10.2-36-34.2-53.2c-24-17.2-42.3-23.8-67-23.3v50.2c1.1-0.1,2.3-0.1,3.5-0.1
		c29.4,0,53.2,23.8,53.2,53.2c0,29.4-23.8,53.2-53.2,53.2c-0.1,0-0.3,0-0.4,0c-2.6,0.1-5.7,0.2-9.4,0.3c-17.3,0.1-121,0.5-121,0.5
		v47.5h141.5c0,0,35.2-1.3,67-38.4C264,257.7,252.2,205,252.2,205z"/>
	<path class="st6" d="M261.9,26.1l-138.7,0.3c0,0-0.3,0-0.9,0.1l0,0c-9.9,0.7-19.5,2.8-28.6,6.1c-5.8,2-11.9,4.7-17.5,8.2
		C45.8,58.7,25,91.3,25,128.6c0,54.1,42.3,98.5,96,102.4l0,0c3.8,0.4,7.8,0.7,11.9,0.8l0.3-50.5c0,0-5.2-0.1-11.8-1.1
		c-6.3-1-13.9-2.8-19.4-6.4c-16.9-8-28.6-25.1-28.6-45c0-18.9,10.6-35.4,26.3-43.8c0.1-0.1,0.3-0.2,0.4-0.4
		c3.5-1.3,12.8-4.4,21.7-5.8c0.1,0,0.2,0,0.2,0c0.6,0,0.9-0.1,0.9-0.1l113-1l124,219.3l32.7-49.5L261.9,26.1z"/>
</g>
</svg>
